<?xml version="1.0" encoding="utf-8"?>
<!-- Generator: Adobe Illustrator 22.0.1, SVG Export Plug-In . SVG Version: 6.00 Build 0)  -->
<svg version="1.1" id="Calque_1" xmlns="http://www.w3.org/2000/svg" xmlns:xlink="http://www.w3.org/1999/xlink" x="0px" y="0px"
	 viewBox="0 0 180.9 114.6" style="enable-background:new 0 0 180.9 114.6;" xml:space="preserve">
<style type="text/css">
	.st0{fill:#4075C3;}
	.st1{fill:#4D4D4D;}
	.st2{fill:#D4D3D1;}
	.st3{fill:#FFFFFF;}
	.st4{fill:#868686;}
</style>
<g>
	<g>
		<path class="st0" d="M10.1,81.8H17v10.7c0,0.2,0.2,0.5,0.5,0.5h8.8c0.3,0,0.5-0.3,0.5-0.5V61.4c0-0.3-0.2-0.5-0.5-0.5h-8.8
			c-0.3,0-0.5,0.2-0.5,0.5v12.5h-6.9V61.4c0-0.3-0.2-0.5-0.5-0.5H0.7c-0.2,0-0.5,0.2-0.5,0.5v31.2c0,0.2,0.3,0.5,0.5,0.5h8.8
			c0.3,0,0.5-0.3,0.5-0.5V81.8z"/>
	</g>
	<g>
		<path class="st0" d="M42.9,66.8c-8.1,0-13.5,5.4-13.5,13.5c0,8.1,5.5,13.5,13.7,13.5c3.6,0,7.2-1,9.7-2.6c0.3-0.2,0.3-0.3,0.3-0.5
			l-2-5.8c0-0.1-0.1-0.2-0.2-0.3c-0.1,0-0.2,0-0.3,0c-2.1,1-4.8,1.6-7.3,1.6c-4.1,0-4.1-3.1-4.1-3.1v-0.2h15.3
			c0.3,0,0.5-0.1,0.5-0.4c0.1-0.6,0.2-1.3,0.2-2.1C55.2,71.8,50.6,66.8,42.9,66.8z M46.1,78.1h-7V78c0-2.2,1.5-3.6,3.7-3.6
			c2,0,3.3,1.5,3.3,3.6V78.1z"/>
	</g>
	<g>
		<path class="st1" d="M66.6,82h0.8l5,10.4c0.2,0.4,0.5,0.7,0.9,0.7h10.1c0.2,0,0.3-0.1,0.4-0.2c0.1-0.1,0-0.2,0-0.3l-7.6-12.3
			l0.2-0.1c3.4-1.4,5.7-5.1,5.7-8.9c0-6.3-4.8-10.5-11.9-10.5H57.8c-0.3,0-0.5,0.3-0.5,0.5v31.2c0,0.2,0.2,0.5,0.5,0.5h8.3
			c0.3,0,0.6-0.3,0.6-0.5V82z M69.6,74.3h-3V69h3c1.7,0,2.9,1.1,2.9,2.7C72.5,73.2,71.3,74.3,69.6,74.3z"/>
	</g>
	<g>
		<path class="st1" d="M96.3,87.5h9.1l1.5,5.1c0.1,0.3,0.5,0.5,0.8,0.5h9.3c0.1,0,0.2,0,0.3-0.1c0-0.1,0-0.2,0-0.2l0,0l-10.7-31.3
			c-0.1-0.2-0.5-0.5-1-0.5h-9.6c-0.4,0-0.9,0.3-1,0.5L84.4,92.6c0,0.1,0,0.2,0,0.3c0,0.1,0.1,0.1,0.3,0.1H94c0.4,0,0.7-0.2,0.8-0.5
			L96.3,87.5z M103.6,81.1h-5.6l2.8-9.8L103.6,81.1z"/>
	</g>
	<g>
		<path class="st1" d="M145.8,77.6v14.9c0,0.2,0.2,0.5,0.5,0.5h8.7c0.3,0,0.5-0.3,0.5-0.5V61.4c0-0.3-0.2-0.5-0.5-0.5h-9.9
			c-0.5,0-1.2,0.4-1.5,0.9L137,80.1l-6.7-18.5c-0.2-0.4-0.9-0.8-1.4-0.8h-9.9c-0.3,0-0.5,0.2-0.5,0.5v31.2c0,0.2,0.2,0.5,0.5,0.5
			h8.7c0.3,0,0.5-0.3,0.5-0.5V77.6l5.1,14.8c0.1,0.3,0.6,0.6,1,0.6h5.2c0.4,0,0.9-0.3,1-0.6L145.8,77.6z"/>
	</g>
	<g>
		<path class="st1" d="M161.2,83C161.2,83,161.2,83,161.2,83c-0.2,0.1-0.3,0.2-0.3,0.4l0,0l-3,6.7c-0.1,0.2,0,0.4,0.3,0.6
			c2.3,1.9,6.4,3.1,10.4,3.1c7.1,0,12-4.1,12-10.3c0-6.7-5.8-9-9.6-10.5c-2.2-0.8-3.7-1.4-3.7-2.5c0-1.1,1-1.9,2.6-1.9
			c1.7,0.1,4.4,1.1,6.7,2.5c0.1,0.1,0.2,0.1,0.3,0.1c0.1,0,0.2-0.2,0.3-0.4l3-6.7c0.1-0.2,0-0.4-0.3-0.6c-3-2-7.2-3.4-10.5-3.4
			c-7,0-11.8,4.2-11.8,10.3c0,6.6,5.7,8.9,9.6,10.4c2.2,0.8,3.7,1.5,3.7,2.5c0,1.2-1.1,2-2.7,2c-1.8-0.1-4.4-1-6.6-2.3
			C161.4,83,161.3,83,161.2,83z"/>
	</g>
</g>
<path class="st2" d="M112.7,21.3c0,10.2-16.1,27.8-20.1,32c-0.5,0.5-1.3,0.5-1.8,0c-4-4.3-20.1-21.9-20.1-32c0-11.6,9.4-21,21-21
	S112.7,9.7,112.7,21.3z"/>
<path class="st0" d="M117.4,38.5c0,4-6.1,10.7-8,12.6c-0.3,0.3-0.7,0.3-1,0c-1.8-1.9-8-8.6-8-12.6c0-4.7,3.8-8.5,8.5-8.5
	S117.4,33.9,117.4,38.5z"/>
<path class="st3" d="M102.4,18.2h-6.9v-6.8c0-0.7-0.5-1.2-1.2-1.2h-5.1c-0.7,0-1.2,0.5-1.2,1.2v6.8h-6.9c-0.7,0-1.2,0.5-1.2,1.2v5.3
	c0,0.7,0.5,1.2,1.2,1.2H88v6.8c0,0.7,0.5,1.2,1.2,1.2h5.1c0.7,0,1.2-0.5,1.2-1.2V26h6.9c0.7,0,1.2-0.5,1.2-1.2v-5.3
	C103.6,18.8,103,18.2,102.4,18.2z"/>
<circle class="st3" cx="109" cy="38.3" r="3.3"/>
<path class="st4" d="M87.7,33.2c0,5.6-8.6,15.2-11.2,18c-0.4,0.4-1.1,0.4-1.5,0c-2.6-2.8-11.2-12.4-11.2-18c0-6.6,5.4-12,12-12
	S87.7,26.6,87.7,33.2z"/>
<circle class="st3" cx="75.7" cy="32.9" r="4.7"/>
<g>
	<path class="st1" d="M41.6,112.8l-5.2-7v7h-1.1V104h1.1l5.1,6.9V104h1.1v8.8H41.6z"/>
	<path class="st1" d="M54.8,112.8V104h1.1v8.8H54.8z"/>
	<path class="st1" d="M67.6,108.4c0-2.8,2-4.6,4.5-4.6c1.6,0,2.7,0.7,3.4,1.6l-0.9,0.6c-0.6-0.7-1.5-1.2-2.6-1.2
		c-1.9,0-3.4,1.5-3.4,3.6c0,2.1,1.5,3.6,3.4,3.6c1.1,0,1.9-0.5,2.4-1v-1.8h-3v-1h4.1v3.2c-0.8,0.9-2,1.5-3.5,1.5
		C69.7,113,67.6,111.2,67.6,108.4z"/>
	<path class="st1" d="M87.5,112.8V104h5.8v1h-4.7v2.8h4.6v1h-4.6v3h4.7v1H87.5z"/>
	<path class="st1" d="M110.2,112.8l-2.2-3.5h-1.8v3.5h-1.1V104h3.5c1.6,0,2.8,1,2.8,2.7c0,1.6-1.1,2.5-2.3,2.6l2.4,3.6H110.2z
		 M110.3,106.7c0-1-0.7-1.7-1.8-1.7h-2.3v3.4h2.3C109.5,108.4,110.3,107.6,110.3,106.7z"/>
	<path class="st1" d="M123.2,112.8V104h1.1v8.8H123.2z"/>
	<path class="st1" d="M142.7,112.8l-0.8-2h-4.4l-0.8,2h-1.3l3.6-8.8h1.4l3.5,8.8H142.7z M139.8,105.1l-1.9,4.8h3.7L139.8,105.1z"/>
</g>
</svg>
