<?xml version="1.0" encoding="utf-8"?>
<!-- Generator: Adobe Illustrator 22.0.1, SVG Export Plug-In . SVG Version: 6.00 Build 0)  -->
<svg version="1.1" id="Calque_1" xmlns="http://www.w3.org/2000/svg" xmlns:xlink="http://www.w3.org/1999/xlink" x="0px" y="0px"
	 viewBox="0 0 32 32.1" style="enable-background:new 0 0 32 32.1;" xml:space="preserve">
<style type="text/css">
	.st0{fill:#E0E0E0;}
	.st1{fill:#7B7B7B;}
</style>
<g>
	<circle class="st0" cx="16" cy="16.1" r="16"/>
</g>
<path class="st1" d="M19.9,15.3H12c-1.3,0-2.4-1.1-2.4-2.4s1.1-2.4,2.4-2.4h4.2L14.7,12l1.1,1.1l3.3-3.3l-3.2-3.2l-1.1,1.1l1.5,1.5
	H12c-2.1,0-3.9,1.7-3.9,3.9s1.7,3.9,3.9,3.9h7.9c1.3,0,2.4,1.1,2.4,2.4s-1.1,2.4-2.4,2.4h-4.8l1.5-1.5l-1.1-1.1l-3.3,3.3l3.2,3.2
	l1.1-1.1L15,23.1h4.9c2.1,0,3.9-1.7,3.9-3.9S22,15.3,19.9,15.3z"/>
</svg>
