<?xml version="1.0" encoding="utf-8"?>
<!-- Generator: Adobe Illustrator 22.0.1, SVG Export Plug-In . SVG Version: 6.00 Build 0)  -->
<svg version="1.1" id="Calque_1" xmlns="http://www.w3.org/2000/svg" xmlns:xlink="http://www.w3.org/1999/xlink" x="0px" y="0px"
	 viewBox="0 0 17.1 8.1" style="enable-background:new 0 0 17.1 8.1;" xml:space="preserve">
<style type="text/css">
	.st0{fill:#BDBDBD;}
</style>
<g>
	<path class="st0" d="M0.1,7.8V6.7h1.7v-5H0.4V0.8c0.4-0.1,0.7-0.2,1-0.3c0.3-0.1,0.5-0.2,0.8-0.4h1v6.5h1.5v1.1H0.1z"/>
	<path class="st0" d="M5.8,7.8V7c0.5-0.5,1-1,1.4-1.4C7.7,5.2,8,4.8,8.3,4.4c0.3-0.4,0.5-0.7,0.7-1s0.2-0.6,0.2-0.9
		c0-0.4-0.1-0.7-0.3-1C8.7,1.3,8.4,1.2,8,1.2c-0.3,0-0.6,0.1-0.8,0.3S6.7,1.8,6.5,2L5.8,1.2c0.4-0.4,0.7-0.7,1.1-0.9
		c0.4-0.2,0.8-0.3,1.3-0.3c0.4,0,0.7,0.1,1,0.2s0.5,0.3,0.8,0.5c0.2,0.2,0.4,0.4,0.5,0.7c0.1,0.3,0.2,0.6,0.2,1c0,0.3-0.1,0.7-0.2,1
		C10.2,3.8,10,4.1,9.8,4.5C9.5,4.8,9.2,5.2,8.9,5.6S8.2,6.4,7.8,6.8c0.2,0,0.4,0,0.6-0.1c0.2,0,0.4,0,0.6,0H11v1.2H5.8z"/>
	<path class="st0" d="M14.4,8c-0.6,0-1.1-0.1-1.6-0.3s-0.8-0.5-1-0.8L12.5,6c0.2,0.2,0.5,0.4,0.8,0.6s0.6,0.2,1,0.2
		c0.4,0,0.8-0.1,1-0.3c0.3-0.2,0.4-0.5,0.4-0.8c0-0.2,0-0.4-0.1-0.5c-0.1-0.2-0.2-0.3-0.4-0.4c-0.2-0.1-0.4-0.2-0.7-0.3
		c-0.3-0.1-0.6-0.1-1.1-0.1v-1c0.4,0,0.7,0,0.9-0.1s0.5-0.1,0.6-0.3c0.2-0.1,0.3-0.2,0.3-0.4c0.1-0.2,0.1-0.3,0.1-0.5
		c0-0.3-0.1-0.6-0.3-0.7c-0.2-0.2-0.5-0.3-0.8-0.3c-0.3,0-0.6,0.1-0.8,0.2c-0.2,0.1-0.5,0.3-0.7,0.5L12.1,1c0.3-0.3,0.7-0.5,1-0.7
		c0.4-0.2,0.8-0.3,1.2-0.3c0.4,0,0.7,0,1,0.1c0.3,0.1,0.6,0.2,0.8,0.4s0.4,0.4,0.5,0.6s0.2,0.5,0.2,0.9c0,0.4-0.1,0.8-0.4,1.1
		c-0.2,0.3-0.6,0.5-1,0.7v0c0.5,0.1,0.8,0.3,1.1,0.7c0.3,0.3,0.4,0.7,0.4,1.2c0,0.4-0.1,0.7-0.2,0.9c-0.1,0.3-0.3,0.5-0.6,0.7
		c-0.2,0.2-0.5,0.3-0.9,0.4C15.1,7.9,14.8,8,14.4,8z"/>
</g>
</svg>
