<?xml version="1.0" encoding="utf-8"?>
<!-- Generator: Adobe Illustrator 22.0.1, SVG Export Plug-In . SVG Version: 6.00 Build 0)  -->
<svg version="1.1" id="Calque_1" xmlns="http://www.w3.org/2000/svg" xmlns:xlink="http://www.w3.org/1999/xlink" x="0px" y="0px"
	 viewBox="0 0 16.1 16" style="enable-background:new 0 0 16.1 16;" xml:space="preserve">
<style type="text/css">
	.st0{fill:#BDBDBD;}
</style>
<g>
	<path class="st0" d="M15,3.4V1.6C15,0.7,14.2,0,13.3,0H2.8C1.9,0,1.1,0.7,1.1,1.6v1.8C0.5,3.7,0,4.4,0,5.2V10
		c0,1.2,0.9,2.1,2.1,2.1h0.5V16h11v-3.9H14c1.2,0,2.1-0.9,2.1-2.1V5.2C16.1,4.5,15.6,3.8,15,3.4z M2.8,1h10.6C13.7,1,14,1.3,14,1.6
		v1.5H2.1V1.6C2.1,1.3,2.4,1,2.8,1z M12.5,15h-9v-4.7h9V15z M15.1,10c0,0.6-0.5,1.1-1.1,1.1h-0.5V9.3h-11v1.8H2.1
		C1.5,11.1,1,10.6,1,10V5.2c0-0.6,0.5-1.1,1.1-1.1H14c0.6,0,1.1,0.5,1.1,1.1V10z"/>
	<path class="st0" d="M13.5,5.1H11c-0.5,0-0.8,0.4-0.8,0.8v1.7c0,0.5,0.4,0.8,0.8,0.8h2.5c0.5,0,0.8-0.4,0.8-0.8V5.9
		C14.3,5.4,14,5.1,13.5,5.1z M13.3,7.4h-2.2V6.1h2.2V7.4z"/>
	<rect x="4.9" y="11.2" class="st0" width="6.3" height="1"/>
	<rect x="4.9" y="13" class="st0" width="6.3" height="1"/>
</g>
</svg>
