<?xml version="1.0" encoding="utf-8"?>
<!-- Generator: Adobe Illustrator 22.0.1, SVG Export Plug-In . SVG Version: 6.00 Build 0)  -->
<svg version="1.1" id="Calque_1" xmlns="http://www.w3.org/2000/svg" xmlns:xlink="http://www.w3.org/1999/xlink" x="0px" y="0px"
	 viewBox="0 0 15.7 15.8" style="enable-background:new 0 0 15.7 15.8;" xml:space="preserve">
<style type="text/css">
	.st0{fill:#BDBDBD;}
</style>
<path class="st0" d="M6.1,1.1c2.8,0,5,2.2,5,5s-2.2,5-5,5s-5-2.2-5-5S3.3,1.1,6.1,1.1 M6.1,0.1c-3.3,0-6,2.7-6,6c0,3.3,2.7,6,6,6
	s6-2.7,6-6C12.1,2.8,9.4,0.1,6.1,0.1L6.1,0.1z"/>
<g>
	<path class="st0" d="M15.4,15.3l-0.2,0.2c-0.3,0.3-0.9,0.3-1.3,0l-3.4-3.4c-0.3-0.3-0.3-0.9,0-1.3l0.2-0.2c0.3-0.3,0.9-0.3,1.3,0
		l3.4,3.4C15.8,14.4,15.8,15,15.4,15.3z"/>
</g>
</svg>
