<svg xmlns="http://www.w3.org/2000/svg" viewBox="0 0 20 20"><path d="M5.8 5.8H0V4.1C0 1.8 1.8 0 4.1 0h1.7v5.8zM11.9 1v3.8H8.1V1h3.8m1-1H7.1v5.8h5.8V0zm2.8 1C17.5 1 19 2.5 19 4.3v.5h-3.8V1h.5m0-1h-1.5v5.8H20V4.3C20 1.9 18.1 0 15.7 0zM4.8 8.1v3.8H1V8.1h3.8m1-1H0v5.8h5.8V7.1zm6.1 1v3.8H8.1V8.1h3.8m1-1H7.1v5.8h5.8V7.1zm6.1 1v3.8h-3.8V8.1H19m1-1h-5.8v5.8H20V7.1zM4.8 15.2V19H4c-1.7 0-3-1.3-3-3v-.8h3.8m1-1H0V16c0 2.2 1.8 4 4 4h1.8v-5.8zm6.1 1V19H8.1v-3.8h3.8m1-1H7.1V20h5.8v-5.8zm6.1 1v.8c0 1.7-1.4 3-3 3h-.7v-3.8H19m1-1h-5.8V20H16c2.2 0 4-1.8 4-4v-1.8z" fill="#76c62f"/></svg>