<svg id="Calque_1" xmlns="http://www.w3.org/2000/svg" viewBox="0 0 20 20"><style>.st0{fill:#76c62f}</style><path class="st0" d="M10 1c5 0 9 4 9 9s-4 9-9 9-9-4-9-9 4.1-9 9-9m0-1C4.5 0 0 4.5 0 10s4.5 10 10 10 10-4.5 10-10S15.5 0 10 0z"/><path class="st0" d="M10.9 13H9v-.5c0-.6.1-1.2.3-1.6.2-.4.6-.9 1.3-1.4.6-.5 1-.8 1.1-1 .2-.2.3-.5.3-.8 0-.4-.2-.8-.5-1.1-.3-.3-.8-.4-1.4-.4-.5 0-1 .2-1.4.5-.4.3-.6.8-.7 1.4l-2-.2c0-.9.4-1.7 1.1-2.4.7-.6 1.7-1 2.8-1 1.2 0 2.2.3 2.9 1 .9.7 1.2 1.4 1.2 2.3 0 .5-.1.9-.4 1.3-.3.4-.8 1-1.7 1.7-.5.4-.7.7-.8.9-.1.3-.2.7-.2 1.3zM9 15.9v-2.2h2.2v2.2H9z"/></svg>