<svg xmlns="http://www.w3.org/2000/svg" viewBox="0 0 17.1 8.1"><path d="M.1 7.8V6.7h1.7v-5H.4V.8c.4-.1.7-.2 1-.3.3-.1.5-.2.8-.4h1v6.5h1.5v1.1H.1zm5.7 0V7l1.4-1.4c.5-.4.8-.8 1.1-1.2.3-.4.5-.7.7-1s.2-.6.2-.9c0-.4-.1-.7-.3-1-.2-.2-.5-.3-.9-.3-.3 0-.6.1-.8.3s-.5.3-.7.5l-.7-.8c.4-.4.7-.7 1.1-.9.4-.2.8-.3 1.3-.3.4 0 .7.1 1 .2s.5.3.8.5c.2.2.4.4.5.7.1.3.2.6.2 1 0 .3-.1.7-.2 1-.3.4-.5.7-.7 1.1-.3.3-.6.7-.9 1.1s-.7.8-1.1 1.2c.2 0 .4 0 .6-.1H11v1.2H5.8zm8.6.2c-.6 0-1.1-.1-1.6-.3s-.8-.5-1-.8l.7-.9c.2.2.5.4.8.6s.6.2 1 .2.8-.1 1-.3c.3-.2.4-.5.4-.8 0-.2 0-.4-.1-.5-.1-.2-.2-.3-.4-.4-.2-.1-.4-.2-.7-.3-.3-.1-.6-.1-1.1-.1v-1c.4 0 .7 0 .9-.1s.5-.1.6-.3c.2-.1.3-.2.3-.4.1-.2.1-.3.1-.5 0-.3-.1-.6-.3-.7-.2-.2-.5-.3-.8-.3-.3 0-.6.1-.8.2-.2.1-.5.3-.7.5l-.6-.8c.3-.3.7-.5 1-.7.4-.2.8-.3 1.2-.3.4 0 .7 0 1 .1.3.1.6.2.8.4s.4.4.5.6.2.5.2.9-.1.8-.4 1.1c-.2.3-.6.5-1 .7.5.1.8.3 1.1.7.3.3.4.7.4 1.2 0 .4-.1.7-.2.9-.1.3-.3.5-.6.7-.2.2-.5.3-.9.4-.1.2-.4.3-.8.3z" fill="#bdbdbd"/></svg>