<svg xmlns="http://www.w3.org/2000/svg" viewBox="0 0 17.1 8.3"><path d="M5.7 5.1c-.6 0-1-.2-1.4-.7-.3-.4-.4-1-.4-1.8s.2-1.4.5-1.8c.3-.4.8-.6 1.4-.6.6 0 1 .2 1.3.6.3.4.5 1 .5 1.8S7.4 4 7.1 4.4c-.4.5-.8.7-1.4.7zm0-.8c.3 0 .5-.1.6-.4.2-.3.2-.7.2-1.3 0-.6-.1-1-.2-1.3C6.2 1 6 .9 5.7.9c-.2 0-.4.1-.6.4-.2.3-.3.7-.3 1.3 0 .6.1 1 .2 1.3.3.2.5.4.7.4zM6 8.2L10.3.1h.8L6.8 8.2H6zm5.4 0c-.6 0-1-.2-1.4-.7-.3-.4-.5-1-.5-1.8 0-.7.2-1.4.5-1.8.3-.4.8-.6 1.4-.6.6 0 1 .2 1.3.6.3.4.5 1 .5 1.8s-.2 1.4-.5 1.8-.8.7-1.3.7zm0-.8c.3 0 .5-.1.6-.4.2-.3.2-.7.2-1.3 0-.6-.1-1-.2-1.3s-.4-.4-.6-.4c-.3 0-.5.1-.6.4-.2.3-.2.7-.2 1.3 0 .6.1 1 .2 1.3.1.3.3.4.6.4z" fill="#bdbdbd"/></svg>