<svg id="Calque_1" xmlns="http://www.w3.org/2000/svg" viewBox="0 0 16.1 16"><style>.st0{fill:#bdbdbd}</style><path class="st0" d="M15 3.4V1.6c0-.9-.8-1.6-1.7-1.6H2.8c-.9 0-1.7.7-1.7 1.6v1.8C.5 3.7 0 4.4 0 5.2V10c0 1.2.9 2.1 2.1 2.1h.5V16h11v-3.9h.4c1.2 0 2.1-.9 2.1-2.1V5.2c0-.7-.5-1.4-1.1-1.8zM2.8 1h10.6c.3 0 .6.3.6.6v1.5H2.1V1.6c0-.3.3-.6.7-.6zm9.7 14h-9v-4.7h9V15zm2.6-5c0 .6-.5 1.1-1.1 1.1h-.5V9.3h-11v1.8h-.4c-.6 0-1.1-.5-1.1-1.1V5.2c0-.6.5-1.1 1.1-1.1H14c.6 0 1.1.5 1.1 1.1V10z"/><path class="st0" d="M13.5 5.1H11c-.5 0-.8.4-.8.8v1.7c0 .5.4.8.8.8h2.5c.5 0 .8-.4.8-.8V5.9c0-.5-.3-.8-.8-.8zm-.2 2.3h-2.2V6.1h2.2v1.3zm-8.4 3.8h6.3v1H4.9zm0 1.8h6.3v1H4.9z"/></svg>